<?xml version="1.0" encoding="UTF-8" standalone="no"?>
<!DOCTYPE svg PUBLIC "-//W3C//DTD SVG 1.1//EN" "http://www.w3.org/Graphics/SVG/1.1/DTD/svg11.dtd">
<svg width="100%" height="100%" viewBox="0 0 1404 1872" version="1.1" xmlns="http://www.w3.org/2000/svg" xmlns:xlink="http://www.w3.org/1999/xlink" xml:space="preserve" xmlns:serif="http://www.serif.com/" style="fill-rule:evenodd;clip-rule:evenodd;stroke-linecap:round;stroke-linejoin:round;stroke-miterlimit:1.5;">
    <g id="Card3" transform="matrix(1,0,0,1,-83.3922,-31.8638)">
        <path d="M514.353,374.4C514.353,320.318 470.446,276.41 416.364,276.41C416.364,276.41 229.733,276.41 229.733,276.41C175.651,276.41 131.743,320.318 131.743,374.4C131.743,374.4 131.743,683.934 131.743,683.934C131.743,738.016 175.651,781.924 229.733,781.924L416.364,781.924C470.446,781.924 514.353,738.016 514.353,683.934C514.353,683.934 514.353,374.4 514.353,374.4ZM509.679,374.4C509.679,322.898 467.866,281.084 416.364,281.084L229.733,281.084C178.23,281.084 136.417,322.898 136.417,374.4L136.417,683.934C136.417,735.437 178.23,777.25 229.733,777.25L416.364,777.25C467.866,777.25 509.679,735.437 509.679,683.934L509.679,374.4Z"/>
        <g transform="matrix(1,0,0,1,-10.2419,0)">
            <g transform="matrix(64,0,0,64,315.493,345.136)">
                <path d="M0.373,-0L0.285,-0L0.285,-0.56C0.264,-0.54 0.236,-0.52 0.201,-0.5C0.167,-0.479 0.136,-0.464 0.109,-0.454L0.109,-0.539C0.158,-0.562 0.201,-0.59 0.238,-0.623C0.275,-0.656 0.301,-0.688 0.316,-0.719L0.373,-0.719L0.373,-0Z" style="fill-rule:nonzero;"/>
            </g>
        </g>
        <g transform="matrix(1,0,0,1,49.0902,-37.5538)">
            <rect x="228.595" y="399.226" width="90.727" height="53.625" style="fill:#b2b2b2;"/>
            <g transform="matrix(48,0,0,48,228.595,442.68)">
                <path d="M0.066,0.199L0.066,-0.519L0.146,-0.519L0.146,-0.451C0.165,-0.478 0.186,-0.497 0.21,-0.51C0.234,-0.524 0.263,-0.53 0.296,-0.53C0.341,-0.53 0.38,-0.519 0.414,-0.496C0.447,-0.473 0.473,-0.441 0.49,-0.4C0.507,-0.358 0.516,-0.313 0.516,-0.263C0.516,-0.21 0.507,-0.162 0.488,-0.12C0.469,-0.077 0.441,-0.045 0.405,-0.022C0.368,0 0.33,0.012 0.29,0.012C0.261,0.012 0.234,0.006 0.211,-0.007C0.188,-0.019 0.169,-0.035 0.154,-0.054L0.154,0.199L0.066,0.199ZM0.146,-0.256C0.146,-0.19 0.159,-0.14 0.186,-0.108C0.213,-0.076 0.246,-0.061 0.284,-0.061C0.323,-0.061 0.357,-0.077 0.385,-0.11C0.412,-0.143 0.426,-0.194 0.426,-0.264C0.426,-0.33 0.413,-0.379 0.385,-0.412C0.358,-0.445 0.326,-0.461 0.288,-0.461C0.251,-0.461 0.218,-0.444 0.189,-0.409C0.16,-0.374 0.146,-0.323 0.146,-0.256Z" style="fill-rule:nonzero;"/>
            </g>
            <g transform="matrix(48,0,0,48,255.29,442.68)">
                <path d="M0.404,-0.064C0.372,-0.036 0.34,-0.017 0.31,-0.005C0.28,0.006 0.248,0.012 0.213,0.012C0.156,0.012 0.113,-0.002 0.082,-0.03C0.051,-0.058 0.036,-0.093 0.036,-0.137C0.036,-0.162 0.042,-0.185 0.053,-0.206C0.065,-0.227 0.08,-0.244 0.099,-0.257C0.118,-0.27 0.139,-0.279 0.162,-0.286C0.179,-0.29 0.205,-0.295 0.24,-0.299C0.311,-0.307 0.363,-0.317 0.397,-0.329C0.397,-0.341 0.397,-0.349 0.397,-0.352C0.397,-0.388 0.389,-0.413 0.373,-0.428C0.35,-0.448 0.317,-0.458 0.272,-0.458C0.231,-0.458 0.201,-0.45 0.181,-0.436C0.161,-0.421 0.147,-0.396 0.137,-0.359L0.051,-0.371C0.059,-0.407 0.072,-0.437 0.09,-0.46C0.108,-0.482 0.134,-0.5 0.167,-0.512C0.201,-0.524 0.241,-0.53 0.285,-0.53C0.329,-0.53 0.365,-0.525 0.393,-0.515C0.421,-0.504 0.441,-0.491 0.454,-0.475C0.467,-0.46 0.476,-0.44 0.481,-0.416C0.484,-0.401 0.486,-0.374 0.486,-0.334L0.486,-0.217C0.486,-0.136 0.488,-0.084 0.491,-0.062C0.495,-0.041 0.503,-0.02 0.514,-0L0.422,-0C0.413,-0.018 0.407,-0.04 0.404,-0.064ZM0.397,-0.26C0.365,-0.247 0.317,-0.236 0.253,-0.227C0.217,-0.222 0.192,-0.216 0.177,-0.209C0.162,-0.203 0.15,-0.193 0.142,-0.181C0.134,-0.168 0.13,-0.154 0.13,-0.139C0.13,-0.116 0.139,-0.096 0.156,-0.081C0.174,-0.065 0.2,-0.057 0.234,-0.057C0.268,-0.057 0.298,-0.065 0.325,-0.079C0.351,-0.094 0.37,-0.114 0.383,-0.14C0.392,-0.16 0.397,-0.189 0.397,-0.228L0.397,-0.26Z" style="fill-rule:nonzero;"/>
            </g>
            <g transform="matrix(48,0,0,48,281.985,442.68)">
                <path d="M0.031,-0.155L0.118,-0.168C0.123,-0.134 0.136,-0.107 0.158,-0.088C0.181,-0.07 0.212,-0.061 0.252,-0.061C0.292,-0.061 0.322,-0.069 0.342,-0.085C0.361,-0.102 0.371,-0.121 0.371,-0.143C0.371,-0.163 0.362,-0.179 0.345,-0.19C0.333,-0.198 0.303,-0.208 0.255,-0.22C0.191,-0.236 0.146,-0.25 0.121,-0.262C0.096,-0.274 0.078,-0.29 0.065,-0.311C0.052,-0.332 0.045,-0.355 0.045,-0.381C0.045,-0.404 0.051,-0.425 0.061,-0.445C0.072,-0.465 0.086,-0.481 0.104,-0.494C0.118,-0.504 0.137,-0.513 0.16,-0.52C0.184,-0.527 0.209,-0.53 0.236,-0.53C0.277,-0.53 0.313,-0.524 0.344,-0.513C0.374,-0.501 0.397,-0.485 0.412,-0.465C0.426,-0.445 0.436,-0.418 0.442,-0.385L0.356,-0.373C0.352,-0.4 0.341,-0.421 0.322,-0.436C0.303,-0.451 0.277,-0.458 0.243,-0.458C0.202,-0.458 0.174,-0.451 0.156,-0.438C0.139,-0.425 0.13,-0.409 0.13,-0.391C0.13,-0.38 0.134,-0.369 0.141,-0.36C0.148,-0.351 0.16,-0.343 0.175,-0.337C0.184,-0.334 0.209,-0.326 0.252,-0.314C0.315,-0.298 0.358,-0.284 0.383,-0.274C0.407,-0.263 0.426,-0.248 0.44,-0.228C0.454,-0.207 0.461,-0.182 0.461,-0.152C0.461,-0.123 0.453,-0.095 0.436,-0.07C0.419,-0.044 0.394,-0.024 0.362,-0.01C0.33,0.005 0.293,0.012 0.252,0.012C0.185,0.012 0.134,-0.002 0.098,-0.03C0.063,-0.058 0.041,-0.1 0.031,-0.155Z" style="fill-rule:nonzero;"/>
            </g>
            <g transform="matrix(48,0,0,48,305.985,442.68)">
                <path d="M0.258,-0.079L0.271,-0.001C0.246,0.004 0.224,0.007 0.204,0.007C0.172,0.007 0.147,0.002 0.13,-0.008C0.112,-0.018 0.1,-0.032 0.093,-0.048C0.086,-0.065 0.082,-0.099 0.082,-0.152L0.082,-0.45L0.018,-0.45L0.018,-0.519L0.082,-0.519L0.082,-0.647L0.169,-0.7L0.169,-0.519L0.258,-0.519L0.258,-0.45L0.169,-0.45L0.169,-0.147C0.169,-0.122 0.171,-0.106 0.174,-0.099C0.177,-0.091 0.182,-0.086 0.189,-0.082C0.196,-0.077 0.206,-0.075 0.219,-0.075C0.229,-0.075 0.242,-0.076 0.258,-0.079Z" style="fill-rule:nonzero;"/>
            </g>
        </g>
    </g>
    <g id="Card2" transform="matrix(1,0,0,1,378.952,-31.8638)">
        <path d="M514.353,374.4C514.353,320.318 470.446,276.41 416.364,276.41C416.364,276.41 229.733,276.41 229.733,276.41C175.651,276.41 131.743,320.318 131.743,374.4L131.743,683.934C131.743,738.016 175.651,781.924 229.733,781.924L416.364,781.924C470.446,781.924 514.353,738.016 514.353,683.934L514.353,374.4ZM509.679,374.4C509.679,322.898 467.866,281.084 416.364,281.084L229.733,281.084C178.23,281.084 136.417,322.898 136.417,374.4L136.417,683.934C136.417,735.437 178.23,777.25 229.733,777.25L416.364,777.25C467.866,777.25 509.679,735.437 509.679,683.934L509.679,374.4Z"/>
        <g transform="matrix(1,0,0,1,-10.2419,0)">
            <g transform="matrix(64,0,0,64,315.493,345.136)">
                <path d="M0.503,-0.084L0.503,-0L0.03,-0C0.03,-0.021 0.033,-0.042 0.041,-0.061C0.053,-0.093 0.072,-0.125 0.098,-0.156C0.125,-0.188 0.163,-0.224 0.213,-0.265C0.291,-0.328 0.344,-0.379 0.371,-0.416C0.398,-0.454 0.412,-0.489 0.412,-0.522C0.412,-0.557 0.4,-0.586 0.375,-0.61C0.35,-0.634 0.317,-0.646 0.277,-0.646C0.235,-0.646 0.201,-0.633 0.176,-0.608C0.15,-0.583 0.138,-0.547 0.137,-0.502L0.047,-0.512C0.053,-0.579 0.076,-0.63 0.117,-0.666C0.157,-0.701 0.211,-0.719 0.279,-0.719C0.348,-0.719 0.402,-0.7 0.442,-0.662C0.482,-0.624 0.502,-0.576 0.502,-0.52C0.502,-0.491 0.497,-0.463 0.485,-0.436C0.473,-0.408 0.454,-0.379 0.427,-0.348C0.399,-0.318 0.354,-0.276 0.291,-0.222C0.238,-0.178 0.204,-0.148 0.189,-0.132C0.174,-0.116 0.162,-0.1 0.152,-0.084L0.503,-0.084Z" style="fill-rule:nonzero;"/>
            </g>
        </g>
        <g transform="matrix(1,0,0,1,14.4027,-37.5538)">
            <rect x="228.595" y="399.226" width="160.102" height="53.625" style="fill:#b2b2b2;"/>
            <g transform="matrix(48,0,0,48,228.595,442.68)">
                <path d="M0.066,0.199L0.066,-0.519L0.146,-0.519L0.146,-0.451C0.165,-0.478 0.186,-0.497 0.21,-0.51C0.234,-0.524 0.263,-0.53 0.296,-0.53C0.341,-0.53 0.38,-0.519 0.414,-0.496C0.447,-0.473 0.473,-0.441 0.49,-0.4C0.507,-0.358 0.516,-0.313 0.516,-0.263C0.516,-0.21 0.507,-0.162 0.488,-0.12C0.469,-0.077 0.441,-0.045 0.405,-0.022C0.368,0 0.33,0.012 0.29,0.012C0.261,0.012 0.234,0.006 0.211,-0.007C0.188,-0.019 0.169,-0.035 0.154,-0.054L0.154,0.199L0.066,0.199ZM0.146,-0.256C0.146,-0.19 0.159,-0.14 0.186,-0.108C0.213,-0.076 0.246,-0.061 0.284,-0.061C0.323,-0.061 0.357,-0.077 0.385,-0.11C0.412,-0.143 0.426,-0.194 0.426,-0.264C0.426,-0.33 0.413,-0.379 0.385,-0.412C0.358,-0.445 0.326,-0.461 0.288,-0.461C0.251,-0.461 0.218,-0.444 0.189,-0.409C0.16,-0.374 0.146,-0.323 0.146,-0.256Z" style="fill-rule:nonzero;"/>
            </g>
            <g transform="matrix(48,0,0,48,255.29,442.68)">
                <path d="M0.065,-0L0.065,-0.519L0.144,-0.519L0.144,-0.44C0.164,-0.477 0.183,-0.501 0.2,-0.513C0.217,-0.524 0.236,-0.53 0.256,-0.53C0.286,-0.53 0.316,-0.521 0.347,-0.502L0.316,-0.42C0.295,-0.433 0.273,-0.439 0.252,-0.439C0.233,-0.439 0.215,-0.434 0.2,-0.422C0.185,-0.411 0.174,-0.395 0.167,-0.374C0.158,-0.343 0.153,-0.309 0.153,-0.271L0.153,-0L0.065,-0Z" style="fill-rule:nonzero;"/>
            </g>
            <g transform="matrix(48,0,0,48,271.274,442.68)">
                <path d="M0.421,-0.167L0.512,-0.156C0.497,-0.103 0.471,-0.062 0.432,-0.032C0.393,-0.003 0.344,0.012 0.284,0.012C0.208,0.012 0.148,-0.012 0.103,-0.058C0.059,-0.105 0.037,-0.171 0.037,-0.255C0.037,-0.342 0.059,-0.41 0.104,-0.458C0.149,-0.506 0.207,-0.53 0.279,-0.53C0.348,-0.53 0.405,-0.507 0.449,-0.459C0.493,-0.412 0.515,-0.346 0.515,-0.26C0.515,-0.255 0.514,-0.247 0.514,-0.237L0.127,-0.237C0.131,-0.18 0.147,-0.136 0.176,-0.106C0.205,-0.076 0.241,-0.061 0.284,-0.061C0.316,-0.061 0.344,-0.069 0.367,-0.086C0.389,-0.103 0.408,-0.13 0.421,-0.167ZM0.132,-0.309L0.422,-0.309C0.418,-0.353 0.407,-0.385 0.389,-0.407C0.361,-0.441 0.324,-0.458 0.28,-0.458C0.239,-0.458 0.205,-0.444 0.178,-0.417C0.15,-0.39 0.135,-0.354 0.132,-0.309Z" style="fill-rule:nonzero;"/>
            </g>
            <g transform="matrix(48,0,0,48,297.97,442.68)">
                <path d="M0.031,-0.155L0.118,-0.168C0.123,-0.134 0.136,-0.107 0.158,-0.088C0.181,-0.07 0.212,-0.061 0.252,-0.061C0.292,-0.061 0.322,-0.069 0.342,-0.085C0.361,-0.102 0.371,-0.121 0.371,-0.143C0.371,-0.163 0.362,-0.179 0.345,-0.19C0.333,-0.198 0.303,-0.208 0.255,-0.22C0.191,-0.236 0.146,-0.25 0.121,-0.262C0.096,-0.274 0.078,-0.29 0.065,-0.311C0.052,-0.332 0.045,-0.355 0.045,-0.381C0.045,-0.404 0.051,-0.425 0.061,-0.445C0.072,-0.465 0.086,-0.481 0.104,-0.494C0.118,-0.504 0.137,-0.513 0.16,-0.52C0.184,-0.527 0.209,-0.53 0.236,-0.53C0.277,-0.53 0.313,-0.524 0.344,-0.513C0.374,-0.501 0.397,-0.485 0.412,-0.465C0.426,-0.445 0.436,-0.418 0.442,-0.385L0.356,-0.373C0.352,-0.4 0.341,-0.421 0.322,-0.436C0.303,-0.451 0.277,-0.458 0.243,-0.458C0.202,-0.458 0.174,-0.451 0.156,-0.438C0.139,-0.425 0.13,-0.409 0.13,-0.391C0.13,-0.38 0.134,-0.369 0.141,-0.36C0.148,-0.351 0.16,-0.343 0.175,-0.337C0.184,-0.334 0.209,-0.326 0.252,-0.314C0.315,-0.298 0.358,-0.284 0.383,-0.274C0.407,-0.263 0.426,-0.248 0.44,-0.228C0.454,-0.207 0.461,-0.182 0.461,-0.152C0.461,-0.123 0.453,-0.095 0.436,-0.07C0.419,-0.044 0.394,-0.024 0.362,-0.01C0.33,0.005 0.293,0.012 0.252,0.012C0.185,0.012 0.134,-0.002 0.098,-0.03C0.063,-0.058 0.041,-0.1 0.031,-0.155Z" style="fill-rule:nonzero;"/>
            </g>
            <g transform="matrix(48,0,0,48,321.97,442.68)">
                <path d="M0.421,-0.167L0.512,-0.156C0.497,-0.103 0.471,-0.062 0.432,-0.032C0.393,-0.003 0.344,0.012 0.284,0.012C0.208,0.012 0.148,-0.012 0.103,-0.058C0.059,-0.105 0.037,-0.171 0.037,-0.255C0.037,-0.342 0.059,-0.41 0.104,-0.458C0.149,-0.506 0.207,-0.53 0.279,-0.53C0.348,-0.53 0.405,-0.507 0.449,-0.459C0.493,-0.412 0.515,-0.346 0.515,-0.26C0.515,-0.255 0.514,-0.247 0.514,-0.237L0.127,-0.237C0.131,-0.18 0.147,-0.136 0.176,-0.106C0.205,-0.076 0.241,-0.061 0.284,-0.061C0.316,-0.061 0.344,-0.069 0.367,-0.086C0.389,-0.103 0.408,-0.13 0.421,-0.167ZM0.132,-0.309L0.422,-0.309C0.418,-0.353 0.407,-0.385 0.389,-0.407C0.361,-0.441 0.324,-0.458 0.28,-0.458C0.239,-0.458 0.205,-0.444 0.178,-0.417C0.15,-0.39 0.135,-0.354 0.132,-0.309Z" style="fill-rule:nonzero;"/>
            </g>
            <g transform="matrix(48,0,0,48,348.665,442.68)">
                <path d="M0.066,-0L0.066,-0.519L0.145,-0.519L0.145,-0.445C0.183,-0.502 0.238,-0.53 0.31,-0.53C0.341,-0.53 0.37,-0.525 0.396,-0.513C0.422,-0.502 0.442,-0.487 0.455,-0.469C0.468,-0.451 0.477,-0.429 0.482,-0.404C0.486,-0.388 0.487,-0.36 0.487,-0.319L0.487,-0L0.399,-0L0.399,-0.315C0.399,-0.351 0.396,-0.378 0.389,-0.396C0.382,-0.413 0.37,-0.428 0.353,-0.438C0.335,-0.449 0.315,-0.454 0.292,-0.454C0.254,-0.454 0.222,-0.442 0.195,-0.418C0.167,-0.395 0.154,-0.35 0.154,-0.283L0.154,-0L0.066,-0Z" style="fill-rule:nonzero;"/>
            </g>
            <g transform="matrix(48,0,0,48,375.36,442.68)">
                <path d="M0.258,-0.079L0.271,-0.001C0.246,0.004 0.224,0.007 0.204,0.007C0.172,0.007 0.147,0.002 0.13,-0.008C0.112,-0.018 0.1,-0.032 0.093,-0.048C0.086,-0.065 0.082,-0.099 0.082,-0.152L0.082,-0.45L0.018,-0.45L0.018,-0.519L0.082,-0.519L0.082,-0.647L0.169,-0.7L0.169,-0.519L0.258,-0.519L0.258,-0.45L0.169,-0.45L0.169,-0.147C0.169,-0.122 0.171,-0.106 0.174,-0.099C0.177,-0.091 0.182,-0.086 0.189,-0.082C0.196,-0.077 0.206,-0.075 0.219,-0.075C0.229,-0.075 0.242,-0.076 0.258,-0.079Z" style="fill-rule:nonzero;"/>
            </g>
        </g>
    </g>
    <g id="Card1" transform="matrix(1,0,0,1,835.288,-31.8638)">
        <path d="M514.353,374.4C514.353,320.318 470.446,276.41 416.364,276.41C416.364,276.41 229.733,276.41 229.733,276.41C175.651,276.41 131.743,320.318 131.743,374.4C131.743,374.4 131.743,683.934 131.743,683.934C131.743,738.016 175.651,781.924 229.733,781.924L416.364,781.924C470.446,781.924 514.353,738.016 514.353,683.934C514.353,683.934 514.353,374.4 514.353,374.4ZM509.679,374.4C509.679,322.898 467.866,281.084 416.364,281.084L229.733,281.084C178.23,281.084 136.417,322.898 136.417,374.4L136.417,683.934C136.417,735.437 178.23,777.25 229.733,777.25L416.364,777.25C467.866,777.25 509.679,735.437 509.679,683.934L509.679,374.4Z"/>
        <g transform="matrix(1,0,0,1,-10.2419,13.9746)">
            <g transform="matrix(64,0,0,64,315.493,345.136)">
                <path d="M0.042,-0.189L0.13,-0.201C0.14,-0.151 0.157,-0.115 0.181,-0.093C0.206,-0.071 0.235,-0.06 0.27,-0.06C0.311,-0.06 0.346,-0.074 0.375,-0.103C0.403,-0.132 0.417,-0.167 0.417,-0.209C0.417,-0.25 0.404,-0.283 0.378,-0.309C0.352,-0.336 0.318,-0.349 0.277,-0.349C0.261,-0.349 0.24,-0.345 0.215,-0.339L0.225,-0.416C0.231,-0.415 0.236,-0.415 0.239,-0.415C0.277,-0.415 0.31,-0.425 0.34,-0.444C0.37,-0.464 0.385,-0.494 0.385,-0.535C0.385,-0.567 0.374,-0.594 0.353,-0.615C0.331,-0.636 0.303,-0.646 0.268,-0.646C0.234,-0.646 0.205,-0.636 0.183,-0.614C0.16,-0.593 0.145,-0.561 0.139,-0.518L0.051,-0.533C0.062,-0.592 0.086,-0.638 0.124,-0.67C0.162,-0.703 0.209,-0.719 0.266,-0.719C0.305,-0.719 0.341,-0.71 0.374,-0.694C0.407,-0.677 0.432,-0.654 0.449,-0.625C0.467,-0.596 0.476,-0.565 0.476,-0.533C0.476,-0.502 0.467,-0.474 0.451,-0.448C0.434,-0.423 0.41,-0.403 0.377,-0.388C0.419,-0.378 0.452,-0.358 0.476,-0.327C0.499,-0.296 0.511,-0.258 0.511,-0.211C0.511,-0.149 0.488,-0.096 0.442,-0.052C0.397,-0.009 0.339,0.013 0.27,0.013C0.207,0.013 0.155,-0.006 0.113,-0.043C0.072,-0.081 0.048,-0.129 0.042,-0.189Z" style="fill-rule:nonzero;"/>
            </g>
        </g>
        <g transform="matrix(1,0,0,1,33.0824,-28.697)">
            <rect x="228.595" y="399.226" width="122.742" height="53.625" style="fill:#b2b2b2;"/>
            <g transform="matrix(48,0,0,48,228.595,442.68)">
                <path d="M0.087,-0L0.087,-0.45L0.009,-0.45L0.009,-0.519L0.087,-0.519L0.087,-0.574C0.087,-0.609 0.09,-0.634 0.096,-0.651C0.105,-0.674 0.12,-0.693 0.141,-0.707C0.162,-0.721 0.192,-0.728 0.23,-0.728C0.255,-0.728 0.283,-0.725 0.313,-0.719L0.299,-0.643C0.281,-0.646 0.264,-0.647 0.248,-0.647C0.221,-0.647 0.202,-0.642 0.191,-0.63C0.18,-0.619 0.174,-0.598 0.174,-0.566L0.174,-0.519L0.275,-0.519L0.275,-0.45L0.174,-0.45L0.174,-0L0.087,-0Z" style="fill-rule:nonzero;"/>
            </g>
            <g transform="matrix(48,0,0,48,241.93,442.68)">
                <path d="M0.406,-0L0.406,-0.076C0.365,-0.018 0.311,0.012 0.241,0.012C0.211,0.012 0.182,0.006 0.156,-0.006C0.129,-0.018 0.109,-0.032 0.096,-0.05C0.084,-0.068 0.075,-0.09 0.069,-0.115C0.066,-0.132 0.064,-0.16 0.064,-0.197L0.064,-0.519L0.152,-0.519L0.152,-0.231C0.152,-0.185 0.154,-0.154 0.157,-0.138C0.163,-0.115 0.174,-0.097 0.192,-0.084C0.21,-0.071 0.232,-0.064 0.259,-0.064C0.285,-0.064 0.31,-0.071 0.333,-0.084C0.356,-0.098 0.372,-0.116 0.382,-0.139C0.392,-0.163 0.396,-0.196 0.396,-0.241L0.396,-0.519L0.484,-0.519L0.484,-0L0.406,-0Z" style="fill-rule:nonzero;"/>
            </g>
            <g transform="matrix(48,0,0,48,268.626,442.68)">
                <path d="M0.258,-0.079L0.271,-0.001C0.246,0.004 0.224,0.007 0.204,0.007C0.172,0.007 0.147,0.002 0.13,-0.008C0.112,-0.018 0.1,-0.032 0.093,-0.048C0.086,-0.065 0.082,-0.099 0.082,-0.152L0.082,-0.45L0.018,-0.45L0.018,-0.519L0.082,-0.519L0.082,-0.647L0.169,-0.7L0.169,-0.519L0.258,-0.519L0.258,-0.45L0.169,-0.45L0.169,-0.147C0.169,-0.122 0.171,-0.106 0.174,-0.099C0.177,-0.091 0.182,-0.086 0.189,-0.082C0.196,-0.077 0.206,-0.075 0.219,-0.075C0.229,-0.075 0.242,-0.076 0.258,-0.079Z" style="fill-rule:nonzero;"/>
            </g>
            <g transform="matrix(48,0,0,48,281.962,442.68)">
                <path d="M0.406,-0L0.406,-0.076C0.365,-0.018 0.311,0.012 0.241,0.012C0.211,0.012 0.182,0.006 0.156,-0.006C0.129,-0.018 0.109,-0.032 0.096,-0.05C0.084,-0.068 0.075,-0.09 0.069,-0.115C0.066,-0.132 0.064,-0.16 0.064,-0.197L0.064,-0.519L0.152,-0.519L0.152,-0.231C0.152,-0.185 0.154,-0.154 0.157,-0.138C0.163,-0.115 0.174,-0.097 0.192,-0.084C0.21,-0.071 0.232,-0.064 0.259,-0.064C0.285,-0.064 0.31,-0.071 0.333,-0.084C0.356,-0.098 0.372,-0.116 0.382,-0.139C0.392,-0.163 0.396,-0.196 0.396,-0.241L0.396,-0.519L0.484,-0.519L0.484,-0L0.406,-0Z" style="fill-rule:nonzero;"/>
            </g>
            <g transform="matrix(48,0,0,48,308.657,442.68)">
                <path d="M0.065,-0L0.065,-0.519L0.144,-0.519L0.144,-0.44C0.164,-0.477 0.183,-0.501 0.2,-0.513C0.217,-0.524 0.236,-0.53 0.256,-0.53C0.286,-0.53 0.316,-0.521 0.347,-0.502L0.316,-0.42C0.295,-0.433 0.273,-0.439 0.252,-0.439C0.233,-0.439 0.215,-0.434 0.2,-0.422C0.185,-0.411 0.174,-0.395 0.167,-0.374C0.158,-0.343 0.153,-0.309 0.153,-0.271L0.153,-0L0.065,-0Z" style="fill-rule:nonzero;"/>
            </g>
            <g transform="matrix(48,0,0,48,324.641,442.68)">
                <path d="M0.421,-0.167L0.512,-0.156C0.497,-0.103 0.471,-0.062 0.432,-0.032C0.393,-0.003 0.344,0.012 0.284,0.012C0.208,0.012 0.148,-0.012 0.103,-0.058C0.059,-0.105 0.037,-0.171 0.037,-0.255C0.037,-0.342 0.059,-0.41 0.104,-0.458C0.149,-0.506 0.207,-0.53 0.279,-0.53C0.348,-0.53 0.405,-0.507 0.449,-0.459C0.493,-0.412 0.515,-0.346 0.515,-0.26C0.515,-0.255 0.514,-0.247 0.514,-0.237L0.127,-0.237C0.131,-0.18 0.147,-0.136 0.176,-0.106C0.205,-0.076 0.241,-0.061 0.284,-0.061C0.316,-0.061 0.344,-0.069 0.367,-0.086C0.389,-0.103 0.408,-0.13 0.421,-0.167ZM0.132,-0.309L0.422,-0.309C0.418,-0.353 0.407,-0.385 0.389,-0.407C0.361,-0.441 0.324,-0.458 0.28,-0.458C0.239,-0.458 0.205,-0.444 0.178,-0.417C0.15,-0.39 0.135,-0.354 0.132,-0.309Z" style="fill-rule:nonzero;"/>
            </g>
        </g>
    </g>
    <g transform="matrix(1,0,0,1,-134.465,0)">
        <g transform="matrix(57.1929,0,0,57.1929,542.681,67.1416)">
            <path d="M0.189,-0L0.261,-0.072L0.269,-0.07C0.272,-0.07 0.282,-0.069 0.297,-0.069C0.333,-0.069 0.36,-0.082 0.377,-0.108C0.395,-0.134 0.411,-0.184 0.426,-0.259L0.503,-0.65L0.38,-0.65C0.255,-0.65 0.192,-0.601 0.192,-0.502C0.192,-0.49 0.193,-0.476 0.196,-0.458L0.095,-0.411C0.108,-0.507 0.15,-0.583 0.219,-0.639C0.289,-0.695 0.376,-0.723 0.481,-0.723L0.688,-0.723C0.781,-0.723 0.843,-0.729 0.874,-0.741C0.904,-0.754 0.924,-0.781 0.935,-0.824L1.008,-0.854C0.986,-0.793 0.942,-0.744 0.876,-0.707C0.811,-0.669 0.737,-0.65 0.655,-0.65L0.606,-0.65L0.538,-0.31C0.526,-0.249 0.508,-0.201 0.485,-0.165C0.461,-0.13 0.424,-0.096 0.374,-0.064L0.562,-0.06L0.494,0.012L0.189,-0Z" style="fill-rule:nonzero;"/>
        </g>
        <g transform="matrix(57.1929,0,0,57.1929,583.565,67.1416)">
            <path d="M0.084,0.006L0.121,-0.145L0.188,-0.482C0.211,-0.6 0.255,-0.691 0.32,-0.757C0.385,-0.823 0.464,-0.855 0.557,-0.855C0.589,-0.855 0.619,-0.852 0.645,-0.845L0.578,-0.775C0.54,-0.793 0.507,-0.801 0.48,-0.801C0.429,-0.801 0.39,-0.782 0.364,-0.745C0.338,-0.707 0.314,-0.636 0.293,-0.53L0.241,-0.265L0.249,-0.265C0.289,-0.348 0.335,-0.415 0.386,-0.466C0.438,-0.517 0.485,-0.542 0.529,-0.542C0.583,-0.542 0.61,-0.512 0.61,-0.453C0.61,-0.434 0.607,-0.41 0.602,-0.383L0.554,-0.145C0.547,-0.107 0.543,-0.083 0.543,-0.071C0.543,-0.051 0.553,-0.041 0.572,-0.041C0.605,-0.041 0.653,-0.076 0.718,-0.148L0.709,-0.103C0.638,-0.026 0.573,0.012 0.517,0.012C0.47,0.012 0.446,-0.012 0.446,-0.061C0.446,-0.078 0.45,-0.105 0.458,-0.144L0.505,-0.383C0.509,-0.402 0.511,-0.418 0.511,-0.43C0.511,-0.457 0.501,-0.47 0.481,-0.47C0.42,-0.47 0.333,-0.371 0.223,-0.174L0.188,-0L0.084,0.006Z" style="fill-rule:nonzero;"/>
        </g>
        <g transform="matrix(57.1929,0,0,57.1929,621.544,67.1416)">
            <path d="M0.138,0.006L0.174,-0.144L0.221,-0.383C0.226,-0.407 0.229,-0.428 0.229,-0.445C0.229,-0.473 0.219,-0.487 0.199,-0.487C0.165,-0.487 0.115,-0.451 0.051,-0.377L0.06,-0.42C0.135,-0.501 0.201,-0.542 0.256,-0.542C0.303,-0.542 0.326,-0.515 0.326,-0.461C0.326,-0.438 0.323,-0.411 0.317,-0.382L0.294,-0.265L0.3,-0.265C0.339,-0.346 0.385,-0.413 0.438,-0.465C0.491,-0.516 0.539,-0.542 0.583,-0.542C0.606,-0.542 0.626,-0.537 0.644,-0.527L0.579,-0.438C0.56,-0.451 0.544,-0.458 0.53,-0.458C0.467,-0.458 0.382,-0.364 0.277,-0.178L0.241,0L0.138,0.006Z" style="fill-rule:nonzero;"/>
        </g>
        <g transform="matrix(57.1929,0,0,57.1929,653.743,67.1416)">
            <path d="M0.526,-0.134L0.519,-0.096C0.415,-0.024 0.327,0.012 0.254,0.012C0.208,0.012 0.17,-0.004 0.141,-0.036C0.113,-0.069 0.098,-0.111 0.098,-0.162C0.098,-0.254 0.133,-0.34 0.204,-0.421C0.274,-0.502 0.349,-0.542 0.429,-0.542C0.458,-0.542 0.481,-0.532 0.499,-0.513C0.517,-0.493 0.526,-0.468 0.526,-0.437C0.526,-0.374 0.494,-0.321 0.43,-0.276C0.366,-0.231 0.29,-0.208 0.202,-0.208L0.201,-0.187C0.201,-0.091 0.236,-0.044 0.306,-0.044C0.366,-0.044 0.439,-0.074 0.526,-0.134ZM0.203,-0.238C0.276,-0.244 0.333,-0.263 0.374,-0.295C0.415,-0.326 0.435,-0.368 0.435,-0.418C0.435,-0.468 0.417,-0.493 0.381,-0.493C0.342,-0.493 0.304,-0.467 0.268,-0.415C0.231,-0.363 0.209,-0.304 0.203,-0.238Z" style="fill-rule:nonzero;"/>
        </g>
        <g transform="matrix(57.1929,0,0,57.1929,684.714,67.1416)">
            <path d="M0.526,-0.134L0.519,-0.096C0.415,-0.024 0.327,0.012 0.254,0.012C0.208,0.012 0.17,-0.004 0.141,-0.036C0.113,-0.069 0.098,-0.111 0.098,-0.162C0.098,-0.254 0.133,-0.34 0.204,-0.421C0.274,-0.502 0.349,-0.542 0.429,-0.542C0.458,-0.542 0.481,-0.532 0.499,-0.513C0.517,-0.493 0.526,-0.468 0.526,-0.437C0.526,-0.374 0.494,-0.321 0.43,-0.276C0.366,-0.231 0.29,-0.208 0.202,-0.208L0.201,-0.187C0.201,-0.091 0.236,-0.044 0.306,-0.044C0.366,-0.044 0.439,-0.074 0.526,-0.134ZM0.203,-0.238C0.276,-0.244 0.333,-0.263 0.374,-0.295C0.415,-0.326 0.435,-0.368 0.435,-0.418C0.435,-0.468 0.417,-0.493 0.381,-0.493C0.342,-0.493 0.304,-0.467 0.268,-0.415C0.231,-0.363 0.209,-0.304 0.203,-0.238Z" style="fill-rule:nonzero;"/>
        </g>
        <g transform="matrix(57.1929,0,0,57.1929,734.674,67.1416)">
            <path d="M0.65,-0.044C0.547,-0.003 0.456,0.018 0.378,0.018C0.294,0.018 0.229,-0.006 0.183,-0.053C0.136,-0.1 0.113,-0.166 0.113,-0.252C0.113,-0.388 0.158,-0.503 0.246,-0.598C0.335,-0.694 0.442,-0.741 0.568,-0.741C0.644,-0.741 0.713,-0.732 0.778,-0.713L0.736,-0.579L0.706,-0.579C0.709,-0.594 0.71,-0.606 0.71,-0.616C0.71,-0.644 0.695,-0.667 0.664,-0.685C0.633,-0.703 0.593,-0.711 0.543,-0.711C0.469,-0.711 0.404,-0.678 0.348,-0.612C0.311,-0.568 0.28,-0.513 0.257,-0.448C0.233,-0.383 0.222,-0.321 0.222,-0.263C0.222,-0.192 0.24,-0.137 0.277,-0.097C0.314,-0.056 0.365,-0.036 0.429,-0.036C0.501,-0.036 0.578,-0.054 0.66,-0.091L0.65,-0.044Z" style="fill-rule:nonzero;"/>
        </g>
        <g transform="matrix(57.1929,0,0,57.1929,773.77,67.1416)">
            <path d="M0.48,-0.265L0.471,-0.265C0.435,-0.183 0.39,-0.117 0.339,-0.065C0.287,-0.014 0.238,0.012 0.193,0.012C0.125,0.012 0.09,-0.031 0.09,-0.117C0.09,-0.211 0.128,-0.304 0.204,-0.395C0.282,-0.489 0.377,-0.536 0.49,-0.536C0.536,-0.536 0.585,-0.534 0.636,-0.53L0.601,-0.386L0.553,-0.145C0.546,-0.107 0.542,-0.082 0.542,-0.071C0.542,-0.051 0.552,-0.041 0.571,-0.041C0.603,-0.041 0.652,-0.076 0.716,-0.148L0.708,-0.103C0.636,-0.026 0.572,0.012 0.515,0.012C0.468,0.012 0.444,-0.012 0.444,-0.062C0.444,-0.078 0.448,-0.105 0.456,-0.145L0.48,-0.265ZM0.519,-0.46C0.478,-0.479 0.438,-0.488 0.398,-0.488C0.339,-0.488 0.291,-0.45 0.256,-0.375C0.214,-0.287 0.193,-0.207 0.193,-0.137C0.193,-0.086 0.208,-0.06 0.238,-0.06C0.266,-0.06 0.306,-0.089 0.359,-0.148C0.412,-0.207 0.458,-0.274 0.497,-0.35L0.519,-0.46Z" style="fill-rule:nonzero;"/>
        </g>
        <g transform="matrix(57.1929,0,0,57.1929,812.001,67.1416)">
            <path d="M0.138,0.006L0.174,-0.144L0.221,-0.383C0.226,-0.407 0.229,-0.428 0.229,-0.445C0.229,-0.473 0.219,-0.487 0.199,-0.487C0.165,-0.487 0.115,-0.451 0.051,-0.377L0.06,-0.42C0.135,-0.501 0.201,-0.542 0.256,-0.542C0.303,-0.542 0.326,-0.515 0.326,-0.461C0.326,-0.438 0.323,-0.411 0.317,-0.382L0.294,-0.265L0.3,-0.265C0.339,-0.346 0.385,-0.413 0.438,-0.465C0.491,-0.516 0.539,-0.542 0.583,-0.542C0.606,-0.542 0.626,-0.537 0.644,-0.527L0.579,-0.438C0.56,-0.451 0.544,-0.458 0.53,-0.458C0.467,-0.458 0.382,-0.364 0.277,-0.178L0.241,0L0.138,0.006Z" style="fill-rule:nonzero;"/>
        </g>
        <g transform="matrix(57.1929,0,0,57.1929,844.2,67.1416)">
            <path d="M0.48,-0.265L0.472,-0.265C0.434,-0.183 0.39,-0.116 0.338,-0.065C0.287,-0.014 0.239,0.012 0.194,0.012C0.125,0.012 0.09,-0.031 0.09,-0.117C0.09,-0.176 0.107,-0.237 0.141,-0.301C0.175,-0.365 0.218,-0.419 0.271,-0.463C0.307,-0.492 0.343,-0.511 0.379,-0.521C0.415,-0.531 0.467,-0.536 0.535,-0.536C0.554,-0.601 0.574,-0.65 0.595,-0.684C0.616,-0.718 0.645,-0.75 0.683,-0.779C0.747,-0.83 0.818,-0.855 0.896,-0.855C0.928,-0.855 0.958,-0.852 0.984,-0.845L0.917,-0.776C0.878,-0.793 0.845,-0.801 0.818,-0.801C0.766,-0.801 0.727,-0.782 0.701,-0.744C0.674,-0.706 0.651,-0.635 0.63,-0.531L0.553,-0.145C0.545,-0.107 0.542,-0.083 0.542,-0.072C0.542,-0.051 0.551,-0.041 0.57,-0.041C0.603,-0.041 0.652,-0.076 0.716,-0.148L0.707,-0.103C0.636,-0.026 0.572,0.012 0.516,0.012C0.468,0.012 0.445,-0.012 0.445,-0.062C0.445,-0.077 0.449,-0.105 0.457,-0.145L0.48,-0.265ZM0.52,-0.46C0.479,-0.479 0.438,-0.488 0.397,-0.488C0.339,-0.488 0.291,-0.45 0.256,-0.375C0.214,-0.287 0.193,-0.207 0.193,-0.137C0.193,-0.086 0.208,-0.06 0.238,-0.06C0.266,-0.06 0.307,-0.09 0.359,-0.148C0.412,-0.207 0.458,-0.275 0.498,-0.35L0.52,-0.46Z" style="fill-rule:nonzero;"/>
        </g>
        <g transform="matrix(57.1929,0,0,57.1929,901.393,67.1416)">
            <path d="M0.057,-0.027L0.125,-0.097C0.184,-0.048 0.246,-0.024 0.311,-0.024C0.355,-0.024 0.392,-0.037 0.42,-0.062C0.448,-0.087 0.462,-0.119 0.462,-0.159C0.462,-0.198 0.436,-0.241 0.382,-0.289L0.313,-0.35C0.262,-0.395 0.231,-0.426 0.219,-0.444C0.206,-0.463 0.2,-0.487 0.2,-0.518C0.2,-0.578 0.226,-0.631 0.277,-0.675C0.329,-0.719 0.39,-0.741 0.461,-0.741C0.507,-0.741 0.56,-0.728 0.621,-0.701L0.596,-0.578L0.565,-0.578C0.566,-0.588 0.566,-0.595 0.566,-0.599C0.566,-0.63 0.554,-0.655 0.529,-0.674C0.505,-0.693 0.472,-0.702 0.431,-0.702C0.389,-0.702 0.354,-0.69 0.325,-0.665C0.297,-0.64 0.282,-0.609 0.282,-0.572C0.282,-0.548 0.289,-0.525 0.304,-0.504C0.318,-0.484 0.349,-0.454 0.395,-0.415L0.452,-0.365C0.516,-0.31 0.548,-0.259 0.548,-0.211C0.548,-0.148 0.518,-0.094 0.458,-0.049C0.398,-0.004 0.326,0.018 0.243,0.018C0.179,0.018 0.117,0.003 0.057,-0.027Z" style="fill-rule:nonzero;"/>
        </g>
        <g transform="matrix(57.1929,0,0,57.1929,934.597,67.1416)">
            <path d="M-0.208,0.316L-0.142,0.247C-0.108,0.263 -0.074,0.271 -0.038,0.271C0.045,0.271 0.1,0.202 0.127,0.065L0.203,-0.314C0.211,-0.362 0.216,-0.394 0.216,-0.41C0.216,-0.437 0.205,-0.451 0.185,-0.451C0.17,-0.451 0.143,-0.445 0.105,-0.434L0.112,-0.464L0.35,-0.542L0.313,-0.384L0.289,-0.265L0.297,-0.265C0.334,-0.347 0.379,-0.414 0.43,-0.465C0.482,-0.516 0.53,-0.542 0.576,-0.542C0.645,-0.542 0.68,-0.499 0.68,-0.413C0.68,-0.313 0.64,-0.217 0.561,-0.127C0.482,-0.038 0.397,0.007 0.309,0.007C0.299,0.007 0.281,0.006 0.253,0.002C0.249,0.002 0.244,0.001 0.236,-0C0.211,0.105 0.166,0.186 0.103,0.241C0.039,0.297 -0.039,0.325 -0.133,0.325C-0.156,0.325 -0.181,0.322 -0.208,0.316ZM0.25,-0.069C0.291,-0.051 0.331,-0.042 0.372,-0.042C0.431,-0.042 0.478,-0.079 0.514,-0.154C0.556,-0.243 0.577,-0.322 0.577,-0.393C0.577,-0.444 0.562,-0.47 0.531,-0.47C0.504,-0.47 0.464,-0.44 0.411,-0.382C0.359,-0.323 0.312,-0.256 0.272,-0.18L0.25,-0.069Z" style="fill-rule:nonzero;"/>
        </g>
        <g transform="matrix(57.1929,0,0,57.1929,972.577,67.1416)">
            <path d="M0.138,0.006L0.174,-0.144L0.221,-0.383C0.226,-0.407 0.229,-0.428 0.229,-0.445C0.229,-0.473 0.219,-0.487 0.199,-0.487C0.165,-0.487 0.115,-0.451 0.051,-0.377L0.06,-0.42C0.135,-0.501 0.201,-0.542 0.256,-0.542C0.303,-0.542 0.326,-0.515 0.326,-0.461C0.326,-0.438 0.323,-0.411 0.317,-0.382L0.294,-0.265L0.3,-0.265C0.339,-0.346 0.385,-0.413 0.438,-0.465C0.491,-0.516 0.539,-0.542 0.583,-0.542C0.606,-0.542 0.626,-0.537 0.644,-0.527L0.579,-0.438C0.56,-0.451 0.544,-0.458 0.53,-0.458C0.467,-0.458 0.382,-0.364 0.277,-0.178L0.241,0L0.138,0.006Z" style="fill-rule:nonzero;"/>
        </g>
        <g transform="matrix(57.1929,0,0,57.1929,1004.78,67.1416)">
            <path d="M0.526,-0.134L0.519,-0.096C0.415,-0.024 0.327,0.012 0.254,0.012C0.208,0.012 0.17,-0.004 0.141,-0.036C0.113,-0.069 0.098,-0.111 0.098,-0.162C0.098,-0.254 0.133,-0.34 0.204,-0.421C0.274,-0.502 0.349,-0.542 0.429,-0.542C0.458,-0.542 0.481,-0.532 0.499,-0.513C0.517,-0.493 0.526,-0.468 0.526,-0.437C0.526,-0.374 0.494,-0.321 0.43,-0.276C0.366,-0.231 0.29,-0.208 0.202,-0.208L0.201,-0.187C0.201,-0.091 0.236,-0.044 0.306,-0.044C0.366,-0.044 0.439,-0.074 0.526,-0.134ZM0.203,-0.238C0.276,-0.244 0.333,-0.263 0.374,-0.295C0.415,-0.326 0.435,-0.368 0.435,-0.418C0.435,-0.468 0.417,-0.493 0.381,-0.493C0.342,-0.493 0.304,-0.467 0.268,-0.415C0.231,-0.363 0.209,-0.304 0.203,-0.238Z" style="fill-rule:nonzero;"/>
        </g>
        <g transform="matrix(57.1929,0,0,57.1929,1035.75,67.1416)">
            <path d="M0.48,-0.265L0.471,-0.265C0.435,-0.183 0.39,-0.117 0.339,-0.065C0.287,-0.014 0.238,0.012 0.193,0.012C0.125,0.012 0.09,-0.031 0.09,-0.117C0.09,-0.211 0.128,-0.304 0.204,-0.395C0.282,-0.489 0.377,-0.536 0.49,-0.536C0.536,-0.536 0.585,-0.534 0.636,-0.53L0.601,-0.386L0.553,-0.145C0.546,-0.107 0.542,-0.082 0.542,-0.071C0.542,-0.051 0.552,-0.041 0.571,-0.041C0.603,-0.041 0.652,-0.076 0.716,-0.148L0.708,-0.103C0.636,-0.026 0.572,0.012 0.515,0.012C0.468,0.012 0.444,-0.012 0.444,-0.062C0.444,-0.078 0.448,-0.105 0.456,-0.145L0.48,-0.265ZM0.519,-0.46C0.478,-0.479 0.438,-0.488 0.398,-0.488C0.339,-0.488 0.291,-0.45 0.256,-0.375C0.214,-0.287 0.193,-0.207 0.193,-0.137C0.193,-0.086 0.208,-0.06 0.238,-0.06C0.266,-0.06 0.306,-0.089 0.359,-0.148C0.412,-0.207 0.458,-0.274 0.497,-0.35L0.519,-0.46Z" style="fill-rule:nonzero;"/>
        </g>
        <g transform="matrix(57.1929,0,0,57.1929,1073.98,67.1416)">
            <path d="M0.48,-0.265L0.472,-0.265C0.434,-0.183 0.39,-0.116 0.338,-0.065C0.287,-0.014 0.239,0.012 0.194,0.012C0.125,0.012 0.09,-0.031 0.09,-0.117C0.09,-0.176 0.107,-0.237 0.141,-0.301C0.175,-0.365 0.218,-0.419 0.271,-0.463C0.307,-0.492 0.343,-0.511 0.379,-0.521C0.415,-0.531 0.467,-0.536 0.535,-0.536C0.554,-0.601 0.574,-0.65 0.595,-0.684C0.616,-0.718 0.645,-0.75 0.683,-0.779C0.747,-0.83 0.818,-0.855 0.896,-0.855C0.928,-0.855 0.958,-0.852 0.984,-0.845L0.917,-0.776C0.878,-0.793 0.845,-0.801 0.818,-0.801C0.766,-0.801 0.727,-0.782 0.701,-0.744C0.674,-0.706 0.651,-0.635 0.63,-0.531L0.553,-0.145C0.545,-0.107 0.542,-0.083 0.542,-0.072C0.542,-0.051 0.551,-0.041 0.57,-0.041C0.603,-0.041 0.652,-0.076 0.716,-0.148L0.707,-0.103C0.636,-0.026 0.572,0.012 0.516,0.012C0.468,0.012 0.445,-0.012 0.445,-0.062C0.445,-0.077 0.449,-0.105 0.457,-0.145L0.48,-0.265ZM0.52,-0.46C0.479,-0.479 0.438,-0.488 0.397,-0.488C0.339,-0.488 0.291,-0.45 0.256,-0.375C0.214,-0.287 0.193,-0.207 0.193,-0.137C0.193,-0.086 0.208,-0.06 0.238,-0.06C0.266,-0.06 0.307,-0.09 0.359,-0.148C0.412,-0.207 0.458,-0.275 0.498,-0.35L0.52,-0.46Z" style="fill-rule:nonzero;"/>
        </g>
        <rect x="542.681" y="72.727" width="569.5" height="2.793"/>
    </g>
    <g transform="matrix(2.43158,0,0,1,-171.352,37.9516)">
        <g transform="matrix(0.411255,0,0,1,46.2927,0)">
            <rect x="259.671" y="62.435" width="678.45" height="65.344" style="fill:#b2b2b2;"/>
        </g>
        <g transform="matrix(0.411255,0,0,1,46.2927,0)">
            <g transform="matrix(48,0,0,48,78.6295,112.169)">
                <path d="M0.039,-0.046L0.109,-0.117C0.142,-0.063 0.188,-0.036 0.246,-0.036C0.284,-0.036 0.319,-0.052 0.348,-0.085C0.378,-0.117 0.398,-0.16 0.409,-0.214L0.501,-0.678C0.484,-0.68 0.473,-0.682 0.466,-0.682C0.412,-0.682 0.368,-0.663 0.332,-0.624C0.296,-0.586 0.278,-0.538 0.278,-0.481L0.184,-0.435C0.19,-0.521 0.225,-0.591 0.29,-0.644C0.354,-0.696 0.435,-0.723 0.533,-0.723L0.58,-0.723C0.614,-0.637 0.658,-0.545 0.712,-0.448L0.774,-0.337C0.818,-0.262 0.849,-0.2 0.87,-0.153L0.926,-0.436C0.945,-0.533 0.979,-0.608 1.026,-0.661C1.074,-0.715 1.132,-0.741 1.2,-0.741C1.224,-0.741 1.247,-0.737 1.271,-0.728L1.235,-0.662C1.206,-0.684 1.179,-0.696 1.152,-0.696C1.082,-0.696 1.034,-0.635 1.01,-0.512L0.937,-0.145L0.914,-0L0.852,0.021C0.84,-0.015 0.806,-0.084 0.749,-0.185L0.629,-0.396C0.597,-0.453 0.571,-0.504 0.55,-0.548L0.513,-0.36C0.489,-0.242 0.45,-0.15 0.394,-0.086C0.339,-0.023 0.271,0.009 0.191,0.009C0.135,0.009 0.085,-0.009 0.039,-0.046Z" style="fill-rule:nonzero;"/>
            </g>
            <g transform="matrix(48,0,0,48,128.539,112.169)">
                <path d="M0.48,-0.265L0.471,-0.265C0.435,-0.183 0.39,-0.117 0.339,-0.065C0.287,-0.014 0.238,0.012 0.193,0.012C0.125,0.012 0.09,-0.031 0.09,-0.117C0.09,-0.211 0.128,-0.304 0.204,-0.395C0.282,-0.489 0.377,-0.536 0.49,-0.536C0.536,-0.536 0.585,-0.534 0.636,-0.53L0.601,-0.386L0.553,-0.145C0.546,-0.107 0.542,-0.082 0.542,-0.071C0.542,-0.051 0.552,-0.041 0.571,-0.041C0.603,-0.041 0.652,-0.076 0.716,-0.148L0.708,-0.103C0.636,-0.026 0.572,0.012 0.515,0.012C0.468,0.012 0.444,-0.012 0.444,-0.062C0.444,-0.078 0.448,-0.105 0.456,-0.145L0.48,-0.265ZM0.519,-0.46C0.478,-0.479 0.438,-0.488 0.398,-0.488C0.339,-0.488 0.291,-0.45 0.256,-0.375C0.214,-0.287 0.193,-0.207 0.193,-0.137C0.193,-0.086 0.208,-0.06 0.238,-0.06C0.266,-0.06 0.306,-0.089 0.359,-0.148C0.412,-0.207 0.458,-0.274 0.497,-0.35L0.519,-0.46Z" style="fill-rule:nonzero;"/>
            </g>
            <g transform="matrix(48,0,0,48,161.105,112.169)">
                <path d="M0.131,0.006L0.167,-0.145L0.215,-0.386C0.223,-0.423 0.227,-0.448 0.227,-0.459C0.227,-0.479 0.217,-0.489 0.198,-0.489C0.166,-0.489 0.117,-0.453 0.052,-0.382L0.061,-0.427C0.132,-0.504 0.196,-0.542 0.253,-0.542C0.3,-0.542 0.323,-0.517 0.323,-0.468C0.323,-0.452 0.319,-0.424 0.312,-0.386L0.288,-0.265L0.295,-0.265C0.337,-0.35 0.382,-0.417 0.431,-0.467C0.481,-0.517 0.526,-0.542 0.568,-0.542C0.59,-0.542 0.608,-0.533 0.623,-0.516C0.638,-0.499 0.645,-0.477 0.645,-0.452C0.645,-0.433 0.642,-0.41 0.637,-0.384L0.613,-0.265L0.62,-0.265C0.656,-0.346 0.699,-0.413 0.748,-0.465C0.797,-0.516 0.842,-0.542 0.883,-0.542C0.941,-0.542 0.97,-0.511 0.97,-0.45C0.97,-0.432 0.967,-0.41 0.962,-0.383L0.915,-0.145C0.907,-0.107 0.903,-0.083 0.903,-0.071C0.903,-0.051 0.913,-0.041 0.932,-0.041C0.964,-0.041 1.013,-0.076 1.078,-0.148L1.069,-0.102C0.998,-0.026 0.934,0.012 0.877,0.012C0.829,0.012 0.806,-0.012 0.806,-0.061C0.806,-0.077 0.81,-0.105 0.817,-0.144L0.865,-0.382C0.87,-0.404 0.872,-0.419 0.872,-0.429C0.872,-0.456 0.862,-0.47 0.842,-0.47C0.785,-0.47 0.703,-0.372 0.596,-0.177L0.559,-0L0.463,0.006L0.54,-0.381C0.544,-0.403 0.546,-0.419 0.546,-0.428C0.546,-0.456 0.537,-0.47 0.517,-0.47C0.493,-0.47 0.457,-0.441 0.409,-0.384C0.361,-0.327 0.315,-0.256 0.27,-0.173L0.234,-0L0.131,0.006Z" style="fill-rule:nonzero;"/>
            </g>
            <g transform="matrix(48,0,0,48,210.734,112.169)">
                <path d="M0.526,-0.134L0.519,-0.096C0.415,-0.024 0.327,0.012 0.254,0.012C0.208,0.012 0.17,-0.004 0.141,-0.036C0.113,-0.069 0.098,-0.111 0.098,-0.162C0.098,-0.254 0.133,-0.34 0.204,-0.421C0.274,-0.502 0.349,-0.542 0.429,-0.542C0.458,-0.542 0.481,-0.532 0.499,-0.513C0.517,-0.493 0.526,-0.468 0.526,-0.437C0.526,-0.374 0.494,-0.321 0.43,-0.276C0.366,-0.231 0.29,-0.208 0.202,-0.208L0.201,-0.187C0.201,-0.091 0.236,-0.044 0.306,-0.044C0.366,-0.044 0.439,-0.074 0.526,-0.134ZM0.203,-0.238C0.276,-0.244 0.333,-0.263 0.374,-0.295C0.415,-0.326 0.435,-0.368 0.435,-0.418C0.435,-0.468 0.417,-0.493 0.381,-0.493C0.342,-0.493 0.304,-0.467 0.268,-0.415C0.231,-0.363 0.209,-0.304 0.203,-0.238Z" style="fill-rule:nonzero;"/>
            </g>
            <g transform="matrix(48,0,0,48,237.206,112.169)">
                <path d="M0.066,-0.087L0.162,-0.156L0.236,-0.061L0.138,0.012L0.066,-0.087ZM0.143,-0.473L0.239,-0.542L0.313,-0.447L0.214,-0.374L0.143,-0.473Z" style="fill-rule:nonzero;"/>
            </g>
        </g>
    </g>
    <g transform="matrix(1,0,0,1,4.09282,-7.44149)">
        <rect x="1040.12" y="107.828" width="314.301" height="65.344" style="fill:#b2b2b2;"/>
        <g transform="matrix(48,0,0,48,897.938,157.562)">
            <path d="M0.103,-0L0.175,-0.072L0.182,-0.073C0.184,-0.074 0.188,-0.073 0.195,-0.073C0.198,-0.072 0.202,-0.072 0.206,-0.072C0.241,-0.072 0.268,-0.083 0.286,-0.105C0.304,-0.126 0.319,-0.165 0.33,-0.221L0.422,-0.685C0.355,-0.685 0.301,-0.667 0.259,-0.631C0.218,-0.595 0.197,-0.548 0.197,-0.49L0.197,-0.479L0.103,-0.433C0.119,-0.626 0.258,-0.723 0.52,-0.723L0.661,-0.723C0.769,-0.723 0.848,-0.702 0.896,-0.662C0.944,-0.621 0.968,-0.555 0.968,-0.463C0.968,-0.315 0.917,-0.198 0.814,-0.114C0.712,-0.03 0.57,0.012 0.389,0.012C0.381,0.012 0.366,0.012 0.343,0.011L0.103,-0ZM0.279,-0.062L0.366,-0.047C0.413,-0.039 0.461,-0.035 0.51,-0.035C0.577,-0.035 0.63,-0.044 0.667,-0.062C0.704,-0.081 0.739,-0.114 0.771,-0.163C0.827,-0.249 0.855,-0.345 0.855,-0.45C0.855,-0.612 0.766,-0.693 0.587,-0.693L0.526,-0.693L0.451,-0.318C0.438,-0.25 0.419,-0.199 0.396,-0.164C0.373,-0.129 0.334,-0.095 0.279,-0.062Z" style="fill-rule:nonzero;"/>
        </g>
        <g transform="matrix(48,0,0,48,945.082,157.562)">
            <path d="M0.48,-0.265L0.471,-0.265C0.435,-0.183 0.39,-0.117 0.339,-0.065C0.287,-0.014 0.238,0.012 0.193,0.012C0.125,0.012 0.09,-0.031 0.09,-0.117C0.09,-0.211 0.128,-0.304 0.204,-0.395C0.282,-0.489 0.377,-0.536 0.49,-0.536C0.536,-0.536 0.585,-0.534 0.636,-0.53L0.601,-0.386L0.553,-0.145C0.546,-0.107 0.542,-0.082 0.542,-0.071C0.542,-0.051 0.552,-0.041 0.571,-0.041C0.603,-0.041 0.652,-0.076 0.716,-0.148L0.708,-0.103C0.636,-0.026 0.572,0.012 0.515,0.012C0.468,0.012 0.444,-0.012 0.444,-0.062C0.444,-0.078 0.448,-0.105 0.456,-0.145L0.48,-0.265ZM0.519,-0.46C0.478,-0.479 0.438,-0.488 0.398,-0.488C0.339,-0.488 0.291,-0.45 0.256,-0.375C0.214,-0.287 0.193,-0.207 0.193,-0.137C0.193,-0.086 0.208,-0.06 0.238,-0.06C0.266,-0.06 0.306,-0.089 0.359,-0.148C0.412,-0.207 0.458,-0.274 0.497,-0.35L0.519,-0.46Z" style="fill-rule:nonzero;"/>
        </g>
        <g transform="matrix(48,0,0,48,977.648,157.562)">
            <path d="M0.222,-0.494L0.11,-0.494L0.144,-0.53L0.229,-0.53L0.257,-0.668L0.358,-0.693L0.326,-0.53L0.51,-0.53L0.47,-0.487C0.428,-0.492 0.39,-0.494 0.358,-0.494L0.318,-0.494L0.252,-0.16C0.245,-0.125 0.242,-0.101 0.242,-0.087C0.242,-0.061 0.253,-0.048 0.276,-0.048C0.311,-0.048 0.359,-0.074 0.42,-0.126L0.411,-0.082C0.348,-0.019 0.287,0.012 0.229,0.012C0.174,0.012 0.146,-0.018 0.146,-0.08C0.146,-0.101 0.15,-0.13 0.157,-0.167L0.222,-0.494Z" style="fill-rule:nonzero;"/>
        </g>
        <g transform="matrix(48,0,0,48,999.995,157.562)">
            <path d="M0.526,-0.134L0.519,-0.096C0.415,-0.024 0.327,0.012 0.254,0.012C0.208,0.012 0.17,-0.004 0.141,-0.036C0.113,-0.069 0.098,-0.111 0.098,-0.162C0.098,-0.254 0.133,-0.34 0.204,-0.421C0.274,-0.502 0.349,-0.542 0.429,-0.542C0.458,-0.542 0.481,-0.532 0.499,-0.513C0.517,-0.493 0.526,-0.468 0.526,-0.437C0.526,-0.374 0.494,-0.321 0.43,-0.276C0.366,-0.231 0.29,-0.208 0.202,-0.208L0.201,-0.187C0.201,-0.091 0.236,-0.044 0.306,-0.044C0.366,-0.044 0.439,-0.074 0.526,-0.134ZM0.203,-0.238C0.276,-0.244 0.333,-0.263 0.374,-0.295C0.415,-0.326 0.435,-0.368 0.435,-0.418C0.435,-0.468 0.417,-0.493 0.381,-0.493C0.342,-0.493 0.304,-0.467 0.268,-0.415C0.231,-0.363 0.209,-0.304 0.203,-0.238Z" style="fill-rule:nonzero;"/>
        </g>
        <g transform="matrix(48,0,0,48,1026.47,157.562)">
            <path d="M0.066,-0.087L0.162,-0.156L0.236,-0.061L0.138,0.012L0.066,-0.087ZM0.143,-0.473L0.239,-0.542L0.313,-0.447L0.214,-0.374L0.143,-0.473Z" style="fill-rule:nonzero;"/>
        </g>
        <g transform="matrix(48,0,0,48,1122.21,157.562)">
            <path d="M-0.029,0.145L0.593,-0.843L0.658,-0.843L0.037,0.145L-0.029,0.145Z" style="fill-rule:nonzero;"/>
        </g>
        <g transform="matrix(48,0,0,48,1230.34,157.562)">
            <path d="M-0.029,0.145L0.593,-0.843L0.658,-0.843L0.037,0.145L-0.029,0.145Z" style="fill-rule:nonzero;"/>
        </g>
    </g>
    <g transform="matrix(1,0,0,1,0,-3.64157)">
        <path d="M41.129,903.653L1357.2,903.653" style="fill:none;stroke:#000;stroke-width:4.67px;"/>
    </g>
    <g transform="matrix(1,0,0,1,0,94.9528)">
        <path d="M41.129,903.653L1357.2,903.653" style="fill:none;stroke:#000;stroke-width:4.67px;"/>
    </g>
    <g transform="matrix(1,0,0,1,0,195.83)">
        <path d="M41.129,903.653L1357.2,903.653" style="fill:none;stroke:#000;stroke-width:4.67px;"/>
    </g>
    <g transform="matrix(1,0,0,1,0,295.358)">
        <path d="M41.129,903.653L1357.2,903.653" style="fill:none;stroke:#000;stroke-width:4.67px;"/>
    </g>
    <g transform="matrix(1,0,0,1,0,394.953)">
        <path d="M41.129,903.653L1357.2,903.653" style="fill:none;stroke:#000;stroke-width:4.67px;"/>
    </g>
    <g transform="matrix(1,0,0,1,0,496.83)">
        <path d="M41.129,903.653L1357.2,903.653" style="fill:none;stroke:#000;stroke-width:4.67px;"/>
    </g>
    <g transform="matrix(1,0,0,1,0,595.358)">
        <path d="M41.129,903.653L1357.2,903.653" style="fill:none;stroke:#000;stroke-width:4.67px;"/>
    </g>
    <g transform="matrix(1,0,0,1,0,695.953)">
        <path d="M41.129,903.653L1357.2,903.653" style="fill:none;stroke:#000;stroke-width:4.67px;"/>
    </g>
    <g transform="matrix(1,0,0,1,0,795.83)">
        <path d="M41.129,903.653L1357.2,903.653" style="fill:none;stroke:#000;stroke-width:4.67px;"/>
    </g>
    <g transform="matrix(1,0,0,1,0,893.83)">
        <path d="M41.129,903.653L1357.2,903.653" style="fill:none;stroke:#000;stroke-width:4.67px;"/>
    </g>
</svg>
